<?xml version="1.0" standalone="no"?><!-- Generator: Gravit.io --><svg xmlns="http://www.w3.org/2000/svg" xmlns:xlink="http://www.w3.org/1999/xlink" style="isolation:isolate" viewBox="0 0 692 585" width="692" height="585"><defs><clipPath id="_clipPath_FUy8n7znuAilUoekCZofSOn2fWaNI9vD"><rect width="692" height="585"/></clipPath></defs><g clip-path="url(#_clipPath_FUy8n7znuAilUoekCZofSOn2fWaNI9vD)"><clipPath id="_clipPath_iec3n3GaipCcsGOr56P80NzOW1UBDlOg"><rect x="0" y="0" width="692" height="585" transform="matrix(1,0,0,1,0,0)" fill="rgb(255,255,255)"/></clipPath><g clip-path="url(#_clipPath_iec3n3GaipCcsGOr56P80NzOW1UBDlOg)"><g><rect x="-1.97" y="240.773" width="693.939" height="108.675" transform="matrix(1,0,0,1,0,0)" fill="rgb(215,35,35)"/><path d=" M 47.404 272.818 L 47.404 272.818 L 47.404 272.818 Q 39.714 272.818 35.495 278.597 L 35.495 278.597 L 35.495 278.597 Q 31.277 284.376 31.277 294.703 L 31.277 294.703 L 31.277 294.703 Q 31.277 316.192 47.404 316.192 L 47.404 316.192 L 47.404 316.192 Q 54.172 316.192 63.796 312.809 L 63.796 312.809 L 63.796 324.234 L 63.796 324.234 Q 55.886 327.53 46.13 327.53 L 46.13 327.53 L 46.13 327.53 Q 32.112 327.53 24.685 319.027 L 24.685 319.027 L 24.685 319.027 Q 17.258 310.524 17.258 294.615 L 17.258 294.615 L 17.258 294.615 Q 17.258 284.596 20.905 277.059 L 20.905 277.059 L 20.905 277.059 Q 24.553 269.523 31.386 265.502 L 31.386 265.502 L 31.386 265.502 Q 38.22 261.481 47.404 261.481 L 47.404 261.481 L 47.404 261.481 Q 56.765 261.481 66.213 266.007 L 66.213 266.007 L 61.819 277.081 L 61.819 277.081 Q 58.215 275.367 54.568 274.093 L 54.568 274.093 L 54.568 274.093 Q 50.92 272.818 47.404 272.818 Z  M 135.779 294.44 L 135.779 294.44 L 135.779 294.44 Q 135.779 310.392 127.868 318.961 L 127.868 318.961 L 127.868 318.961 Q 119.958 327.53 105.193 327.53 L 105.193 327.53 L 105.193 327.53 Q 90.427 327.53 82.517 318.961 L 82.517 318.961 L 82.517 318.961 Q 74.607 310.392 74.607 294.352 L 74.607 294.352 L 74.607 294.352 Q 74.607 278.312 82.539 269.852 L 82.539 269.852 L 82.539 269.852 Q 90.471 261.393 105.28 261.393 L 105.28 261.393 L 105.28 261.393 Q 120.09 261.393 127.934 269.918 L 127.934 269.918 L 127.934 269.918 Q 135.779 278.443 135.779 294.44 Z  M 88.889 294.44 L 88.889 294.44 L 88.889 294.44 Q 88.889 305.206 92.976 310.655 L 92.976 310.655 L 92.976 310.655 Q 97.063 316.105 105.193 316.105 L 105.193 316.105 L 105.193 316.105 Q 121.496 316.105 121.496 294.44 L 121.496 294.44 L 121.496 294.44 Q 121.496 272.731 105.28 272.731 L 105.28 272.731 L 105.28 272.731 Q 97.151 272.731 93.02 278.202 L 93.02 278.202 L 93.02 278.202 Q 88.889 283.673 88.889 294.44 Z  M 162.717 273.566 L 162.717 290.924 L 167.112 290.924 L 167.112 290.924 Q 173.571 290.924 176.648 288.771 L 176.648 288.771 L 176.648 288.771 Q 179.724 286.617 179.724 282.003 L 179.724 282.003 L 179.724 282.003 Q 179.724 277.433 176.582 275.499 L 176.582 275.499 L 176.582 275.499 Q 173.44 273.566 166.848 273.566 L 166.848 273.566 L 162.717 273.566 L 162.717 273.566 Z  M 169.968 301.998 L 162.717 301.998 L 162.717 326.651 L 149.094 326.651 L 149.094 262.403 L 167.815 262.403 L 167.815 262.403 Q 180.91 262.403 187.195 267.171 L 187.195 267.171 L 187.195 267.171 Q 193.479 271.94 193.479 281.651 L 193.479 281.651 L 193.479 281.651 Q 193.479 287.32 190.359 291.737 L 190.359 291.737 L 190.359 291.737 Q 187.238 296.153 181.526 298.658 L 181.526 298.658 L 181.526 298.658 Q 196.028 320.323 200.422 326.651 L 200.422 326.651 L 185.305 326.651 L 169.968 301.998 L 169.968 301.998 Z  M 266.823 294.44 L 266.823 294.44 L 266.823 294.44 Q 266.823 310.392 258.913 318.961 L 258.913 318.961 L 258.913 318.961 Q 251.003 327.53 236.238 327.53 L 236.238 327.53 L 236.238 327.53 Q 221.472 327.53 213.562 318.961 L 213.562 318.961 L 213.562 318.961 Q 205.652 310.392 205.652 294.352 L 205.652 294.352 L 205.652 294.352 Q 205.652 278.312 213.584 269.852 L 213.584 269.852 L 213.584 269.852 Q 221.516 261.393 236.325 261.393 L 236.325 261.393 L 236.325 261.393 Q 251.135 261.393 258.979 269.918 L 258.979 269.918 L 258.979 269.918 Q 266.823 278.443 266.823 294.44 Z  M 219.934 294.44 L 219.934 294.44 L 219.934 294.44 Q 219.934 305.206 224.021 310.655 L 224.021 310.655 L 224.021 310.655 Q 228.108 316.105 236.238 316.105 L 236.238 316.105 L 236.238 316.105 Q 252.541 316.105 252.541 294.44 L 252.541 294.44 L 252.541 294.44 Q 252.541 272.731 236.325 272.731 L 236.325 272.731 L 236.325 272.731 Q 228.196 272.731 224.065 278.202 L 224.065 278.202 L 224.065 278.202 Q 219.934 283.673 219.934 294.44 Z  M 337.136 262.403 L 337.136 326.651 L 319.821 326.651 L 291.872 278.048 L 291.477 278.048 L 291.477 278.048 Q 292.312 290.924 292.312 296.417 L 292.312 296.417 L 292.312 326.651 L 280.139 326.651 L 280.139 262.403 L 297.321 262.403 L 325.227 310.524 L 325.534 310.524 L 325.534 310.524 Q 324.875 297.999 324.875 292.814 L 324.875 292.814 L 324.875 262.403 L 337.136 262.403 L 337.136 262.403 Z  M 407.317 326.651 L 392.639 326.651 L 387.981 311.359 L 364.558 311.359 L 359.9 326.651 L 345.222 326.651 L 367.898 262.14 L 384.553 262.14 L 407.317 326.651 L 407.317 326.651 Z  M 367.986 299.933 L 384.729 299.933 L 384.729 299.933 Q 378.269 279.147 377.456 276.422 L 377.456 276.422 L 377.456 276.422 Q 376.643 273.697 376.291 272.115 L 376.291 272.115 L 376.291 272.115 Q 374.841 277.74 367.986 299.933 L 367.986 299.933 L 367.986 299.933 Z  M 439.88 300.636 L 452.053 262.403 L 465.808 262.403 L 443.967 326.651 L 429.113 326.651 L 407.317 262.403 L 421.071 262.403 L 433.156 300.636 L 433.156 300.636 Q 434.167 304.02 435.244 308.524 L 435.244 308.524 L 435.244 308.524 Q 436.321 313.028 436.584 314.786 L 436.584 314.786 L 436.584 314.786 Q 437.068 310.743 439.88 300.636 L 439.88 300.636 L 439.88 300.636 Z  M 487.517 326.651 L 473.894 326.651 L 473.894 262.403 L 487.517 262.403 L 487.517 326.651 L 487.517 326.651 Z  M 517.312 273.566 L 517.312 290.924 L 521.706 290.924 L 521.706 290.924 Q 528.166 290.924 531.242 288.771 L 531.242 288.771 L 531.242 288.771 Q 534.319 286.617 534.319 282.003 L 534.319 282.003 L 534.319 282.003 Q 534.319 277.433 531.176 275.499 L 531.176 275.499 L 531.176 275.499 Q 528.034 273.566 521.443 273.566 L 521.443 273.566 L 517.312 273.566 L 517.312 273.566 Z  M 524.563 301.998 L 517.312 301.998 L 517.312 326.651 L 503.689 326.651 L 503.689 262.403 L 522.409 262.403 L 522.409 262.403 Q 535.505 262.403 541.789 267.171 L 541.789 267.171 L 541.789 267.171 Q 548.073 271.94 548.073 281.651 L 548.073 281.651 L 548.073 281.651 Q 548.073 287.32 544.953 291.737 L 544.953 291.737 L 544.953 291.737 Q 541.833 296.153 536.12 298.658 L 536.12 298.658 L 536.12 298.658 Q 550.622 320.323 555.017 326.651 L 555.017 326.651 L 539.9 326.651 L 524.563 301.998 L 524.563 301.998 Z  M 601.819 262.403 L 615.398 262.403 L 615.398 303.976 L 615.398 303.976 Q 615.398 311.095 612.212 316.456 L 612.212 316.456 L 612.212 316.456 Q 609.026 321.817 603.005 324.674 L 603.005 324.674 L 603.005 324.674 Q 596.985 327.53 588.767 327.53 L 588.767 327.53 L 588.767 327.53 Q 576.374 327.53 569.519 321.18 L 569.519 321.18 L 569.519 321.18 Q 562.663 314.83 562.663 303.8 L 562.663 303.8 L 562.663 262.403 L 576.242 262.403 L 576.242 301.734 L 576.242 301.734 Q 576.242 309.161 579.231 312.633 L 579.231 312.633 L 579.231 312.633 Q 582.219 316.105 589.118 316.105 L 589.118 316.105 L 589.118 316.105 Q 595.798 316.105 598.808 312.611 L 598.808 312.611 L 598.808 312.611 Q 601.819 309.117 601.819 301.647 L 601.819 301.647 L 601.819 262.403 L 601.819 262.403 Z  M 669.055 308.81 L 669.055 308.81 L 669.055 308.81 Q 669.055 317.511 662.793 322.521 L 662.793 322.521 L 662.793 322.521 Q 656.53 327.53 645.368 327.53 L 645.368 327.53 L 645.368 327.53 Q 635.085 327.53 627.175 323.663 L 627.175 323.663 L 627.175 311.007 L 627.175 311.007 Q 633.679 313.907 638.183 315.094 L 638.183 315.094 L 638.183 315.094 Q 642.688 316.28 646.423 316.28 L 646.423 316.28 L 646.423 316.28 Q 650.905 316.28 653.3 314.567 L 653.3 314.567 L 653.3 314.567 Q 655.696 312.853 655.696 309.469 L 655.696 309.469 L 655.696 309.469 Q 655.696 307.579 654.641 306.107 L 654.641 306.107 L 654.641 306.107 Q 653.586 304.635 651.543 303.273 L 651.543 303.273 L 651.543 303.273 Q 649.499 301.91 643.215 298.922 L 643.215 298.922 L 643.215 298.922 Q 637.326 296.153 634.382 293.605 L 634.382 293.605 L 634.382 293.605 Q 631.438 291.056 629.68 287.672 L 629.68 287.672 L 629.68 287.672 Q 627.922 284.288 627.922 279.762 L 627.922 279.762 L 627.922 279.762 Q 627.922 271.236 633.701 266.359 L 633.701 266.359 L 633.701 266.359 Q 639.48 261.481 649.675 261.481 L 649.675 261.481 L 649.675 261.481 Q 654.685 261.481 659.233 262.667 L 659.233 262.667 L 659.233 262.667 Q 663.781 263.854 668.747 266.007 L 668.747 266.007 L 664.353 276.598 L 664.353 276.598 Q 659.211 274.488 655.849 273.653 L 655.849 273.653 L 655.849 273.653 Q 652.488 272.818 649.236 272.818 L 649.236 272.818 L 649.236 272.818 Q 645.368 272.818 643.303 274.62 L 643.303 274.62 L 643.303 274.62 Q 641.238 276.422 641.238 279.322 L 641.238 279.322 L 641.238 279.322 Q 641.238 281.124 642.072 282.464 L 642.072 282.464 L 642.072 282.464 Q 642.907 283.805 644.731 285.057 L 644.731 285.057 L 644.731 285.057 Q 646.555 286.31 653.366 289.562 L 653.366 289.562 L 653.366 289.562 Q 662.375 293.868 665.715 298.197 L 665.715 298.197 L 665.715 298.197 Q 669.055 302.526 669.055 308.81 Z " fill-rule="evenodd" fill="rgb(255,255,255)"/></g></g></g></svg>