<?xml version="1.0" standalone="no"?><!-- Generator: Gravit.io --><svg xmlns="http://www.w3.org/2000/svg" xmlns:xlink="http://www.w3.org/1999/xlink" style="isolation:isolate" viewBox="0 0 200 200" width="200" height="200"><defs><clipPath id="_clipPath_isKQXgUOIXHZVmcvtaNqw0Np7Op1DFun"><rect width="200" height="200"/></clipPath></defs><g clip-path="url(#_clipPath_isKQXgUOIXHZVmcvtaNqw0Np7Op1DFun)"><rect width="200" height="200" style="fill:rgb(0,0,0)" fill-opacity="0"/><g><path d=" M 36.978 15.475 C 30.826 16.513 25.638 21.627 25.156 27.149 C 24.971 29.484 25.304 29.855 31.938 34.005 C 44.354 41.825 67.553 56.538 82.341 65.989 C 98.647 76.403 98.647 76.403 100.686 76.403 L 102.724 76.403 L 127.184 60.8 C 140.637 52.239 156.758 42.01 163.021 38.082 C 169.285 34.154 174.844 30.448 175.363 29.855 C 176.03 29.039 176.289 28.298 176.289 27.149 C 176.289 23.814 172.731 18.885 168.877 16.92 C 165.171 15.03 166.95 15.067 100.686 15.104 C 66.182 15.142 38.09 15.29 36.978 15.475 Z " fill="rgb(0,0,0)"/><path d=" M 25.082 73.438 C 25.082 98.417 25.193 104.754 25.564 104.532 C 27.787 103.271 74.373 73.438 74.373 73.29 C 74.373 73.03 26.231 42.344 25.564 42.196 C 25.156 42.085 25.082 47.829 25.082 73.438 Z " fill="rgb(0,0,0)"/><path d=" M 151.384 57.613 C 137.968 66.1 127.073 73.178 127.11 73.327 C 127.221 73.697 175.474 104.383 175.918 104.383 C 176.141 104.383 176.289 93.006 176.289 73.252 C 176.289 56.13 176.178 42.122 176.03 42.122 C 175.844 42.122 164.763 49.089 151.384 57.613 Z " fill="rgb(0,0,0)"/><path d=" M 111.581 82.851 C 109.358 84.296 106.208 86.298 104.577 87.335 C 102.168 88.892 101.39 89.188 100.426 89.04 C 99.759 88.966 97.35 87.632 95.052 86.112 C 87.01 80.85 85.046 80.072 82.489 81.146 C 81.748 81.443 75.596 85.186 68.776 89.485 C 32.605 112.203 26.676 115.983 25.934 116.836 C 24.452 118.503 25.045 121.765 27.491 125.36 C 29.048 127.583 31.308 129.325 34.236 130.437 L 36.385 131.252 L 99.277 131.363 C 167.172 131.475 164.837 131.512 169.099 129.547 C 173.065 127.657 176.104 123.321 176.104 119.504 C 176.104 117.725 175.956 117.243 175.177 116.502 C 174.658 116.02 168.173 111.795 160.724 107.126 C 153.274 102.493 140.711 94.525 132.78 89.485 C 120.735 81.813 118.141 80.294 116.992 80.294 C 115.954 80.294 114.694 80.887 111.581 82.851 Z " fill="rgb(0,0,0)"/></g><path d=" M 75.705 160.641 L 75.705 163.141 L 67.482 163.141 L 67.482 148.863 L 75.705 148.863 L 75.705 151.344 L 70.51 151.344 L 70.51 154.479 L 75.344 154.479 L 75.344 156.959 L 70.51 156.959 L 70.51 160.641 L 75.705 160.641 L 75.705 160.641 Z  M 87.502 163.141 L 84.729 163.141 L 81.291 151.939 L 81.203 151.939 L 81.203 151.939 Q 81.389 155.357 81.389 156.5 L 81.389 156.5 L 81.389 163.141 L 78.684 163.141 L 78.684 148.863 L 82.805 148.863 L 86.184 159.781 L 86.242 159.781 L 89.826 148.863 L 93.947 148.863 L 93.947 163.141 L 91.125 163.141 L 91.125 156.383 L 91.125 156.383 Q 91.125 155.904 91.14 155.279 L 91.14 155.279 L 91.14 155.279 Q 91.154 154.654 91.271 151.959 L 91.271 151.959 L 91.184 151.959 L 87.502 163.141 L 87.502 163.141 Z  M 109.543 163.141 L 106.281 163.141 L 105.246 159.742 L 100.041 159.742 L 99.006 163.141 L 95.744 163.141 L 100.783 148.805 L 104.484 148.805 L 109.543 163.141 L 109.543 163.141 Z  M 100.803 157.203 L 104.523 157.203 L 104.523 157.203 Q 103.088 152.584 102.907 151.979 L 102.907 151.979 L 102.907 151.979 Q 102.727 151.373 102.648 151.021 L 102.648 151.021 L 102.648 151.021 Q 102.326 152.271 100.803 157.203 L 100.803 157.203 L 100.803 157.203 Z  M 114.367 163.141 L 111.34 163.141 L 111.34 148.863 L 114.367 148.863 L 114.367 163.141 L 114.367 163.141 Z  M 126.779 163.141 L 117.961 163.141 L 117.961 148.863 L 120.988 148.863 L 120.988 160.641 L 126.779 160.641 L 126.779 163.141 L 126.779 163.141 Z  M 128.605 161.744 L 128.605 161.744 L 128.605 161.744 Q 128.605 160.924 129.045 160.504 L 129.045 160.504 L 129.045 160.504 Q 129.484 160.084 130.324 160.084 L 130.324 160.084 L 130.324 160.084 Q 131.135 160.084 131.579 160.514 L 131.579 160.514 L 131.579 160.514 Q 132.023 160.943 132.023 161.744 L 132.023 161.744 L 132.023 161.744 Q 132.023 162.516 131.574 162.96 L 131.574 162.96 L 131.574 162.96 Q 131.125 163.404 130.324 163.404 L 130.324 163.404 L 130.324 163.404 Q 129.504 163.404 129.055 162.97 L 129.055 162.97 L 129.055 162.97 Q 128.605 162.535 128.605 161.744 Z  M 128.605 153.678 L 128.605 153.678 L 128.605 153.678 Q 128.605 152.857 129.045 152.438 L 129.045 152.438 L 129.045 152.438 Q 129.484 152.018 130.324 152.018 L 130.324 152.018 L 130.324 152.018 Q 131.135 152.018 131.579 152.447 L 131.579 152.447 L 131.579 152.447 Q 132.023 152.877 132.023 153.678 L 132.023 153.678 L 132.023 153.678 Q 132.023 154.469 131.569 154.903 L 131.569 154.903 L 131.569 154.903 Q 131.115 155.338 130.324 155.338 L 130.324 155.338 L 130.324 155.338 Q 129.504 155.338 129.055 154.908 L 129.055 154.908 L 129.055 154.908 Q 128.605 154.479 128.605 153.678 Z " fill-rule="evenodd" fill="rgb(0,0,0)"/><path d=" M 13.334 175.98 L 13.334 180.964 L 11.249 180.964 L 11.249 176.5 L 11.249 176.5 Q 11.249 175.673 10.955 175.259 L 10.955 175.259 L 10.955 175.259 Q 10.661 174.846 10.019 174.846 L 10.019 174.846 L 10.019 174.846 Q 9.144 174.846 8.754 175.43 L 8.754 175.43 L 8.754 175.43 Q 8.364 176.015 8.364 177.368 L 8.364 177.368 L 8.364 180.964 L 6.279 180.964 L 6.279 173.321 L 7.872 173.321 L 8.152 174.299 L 8.269 174.299 L 8.269 174.299 Q 8.617 173.745 9.229 173.461 L 9.229 173.461 L 9.229 173.461 Q 9.841 173.178 10.62 173.178 L 10.62 173.178 L 10.62 173.178 Q 11.953 173.178 12.644 173.899 L 12.644 173.899 L 12.644 173.899 Q 13.334 174.62 13.334 175.98 L 13.334 175.98 L 13.334 175.98 Z  M 17.142 177.129 L 17.142 177.129 L 17.142 177.129 Q 17.142 178.264 17.514 178.845 L 17.514 178.845 L 17.514 178.845 Q 17.887 179.426 18.728 179.426 L 18.728 179.426 L 18.728 179.426 Q 19.562 179.426 19.927 178.848 L 19.927 178.848 L 19.927 178.848 Q 20.293 178.271 20.293 177.129 L 20.293 177.129 L 20.293 177.129 Q 20.293 175.994 19.924 175.427 L 19.924 175.427 L 19.924 175.427 Q 19.555 174.859 18.714 174.859 L 18.714 174.859 L 18.714 174.859 Q 17.88 174.859 17.511 175.423 L 17.511 175.423 L 17.511 175.423 Q 17.142 175.987 17.142 177.129 Z  M 22.426 177.129 L 22.426 177.129 L 22.426 177.129 Q 22.426 178.995 21.441 180.048 L 21.441 180.048 L 21.441 180.048 Q 20.457 181.101 18.7 181.101 L 18.7 181.101 L 18.7 181.101 Q 17.6 181.101 16.759 180.619 L 16.759 180.619 L 16.759 180.619 Q 15.918 180.137 15.467 179.234 L 15.467 179.234 L 15.467 179.234 Q 15.016 178.332 15.016 177.129 L 15.016 177.129 L 15.016 177.129 Q 15.016 175.256 15.993 174.217 L 15.993 174.217 L 15.993 174.217 Q 16.971 173.178 18.741 173.178 L 18.741 173.178 L 18.741 173.178 Q 19.842 173.178 20.683 173.656 L 20.683 173.656 L 20.683 173.656 Q 21.523 174.135 21.975 175.03 L 21.975 175.03 L 21.975 175.03 Q 22.426 175.926 22.426 177.129 Z  M 28.106 180.964 L 25.967 180.964 L 23.055 173.321 L 25.235 173.321 L 26.712 177.676 L 26.712 177.676 Q 26.958 178.503 27.02 179.241 L 27.02 179.241 L 27.061 179.241 L 27.061 179.241 Q 27.095 178.585 27.368 177.676 L 27.368 177.676 L 28.838 173.321 L 31.019 173.321 L 28.106 180.964 L 28.106 180.964 Z  M 34.054 180.909 L 31.019 173.321 L 33.302 173.321 L 34.744 177.621 L 34.744 177.621 Q 34.929 178.182 34.997 178.947 L 34.997 178.947 L 35.038 178.947 L 35.038 178.947 Q 35.113 178.243 35.332 177.621 L 35.332 177.621 L 36.747 173.321 L 38.982 173.321 L 35.749 181.941 L 35.749 181.941 Q 35.305 183.138 34.481 183.732 L 34.481 183.732 L 34.481 183.732 Q 33.657 184.327 32.557 184.327 L 32.557 184.327 L 32.557 184.327 Q 32.017 184.327 31.497 184.211 L 31.497 184.211 L 31.497 182.557 L 31.497 182.557 Q 31.873 182.646 32.317 182.646 L 32.317 182.646 L 32.317 182.646 Q 32.871 182.646 33.285 182.307 L 33.285 182.307 L 33.285 182.307 Q 33.698 181.969 33.931 181.285 L 33.931 181.285 L 34.054 180.909 L 34.054 180.909 Z  M 42.052 176.808 L 42.079 176.808 L 42.988 175.646 L 45.128 173.321 L 47.479 173.321 L 44.444 176.637 L 47.664 180.964 L 45.258 180.964 L 43.057 177.867 L 42.161 178.585 L 42.161 180.964 L 40.076 180.964 L 40.076 170.327 L 42.161 170.327 L 42.161 175.071 L 42.052 176.808 L 42.052 176.808 Z  M 50.419 177.129 L 50.419 177.129 L 50.419 177.129 Q 50.419 178.264 50.792 178.845 L 50.792 178.845 L 50.792 178.845 Q 51.164 179.426 52.005 179.426 L 52.005 179.426 L 52.005 179.426 Q 52.839 179.426 53.205 178.848 L 53.205 178.848 L 53.205 178.848 Q 53.57 178.271 53.57 177.129 L 53.57 177.129 L 53.57 177.129 Q 53.57 175.994 53.201 175.427 L 53.201 175.427 L 53.201 175.427 Q 52.832 174.859 51.991 174.859 L 51.991 174.859 L 51.991 174.859 Q 51.157 174.859 50.788 175.423 L 50.788 175.423 L 50.788 175.423 Q 50.419 175.987 50.419 177.129 Z  M 55.703 177.129 L 55.703 177.129 L 55.703 177.129 Q 55.703 178.995 54.719 180.048 L 54.719 180.048 L 54.719 180.048 Q 53.734 181.101 51.978 181.101 L 51.978 181.101 L 51.978 181.101 Q 50.877 181.101 50.036 180.619 L 50.036 180.619 L 50.036 180.619 Q 49.195 180.137 48.744 179.234 L 48.744 179.234 L 48.744 179.234 Q 48.293 178.332 48.293 177.129 L 48.293 177.129 L 48.293 177.129 Q 48.293 175.256 49.271 174.217 L 49.271 174.217 L 49.271 174.217 Q 50.248 173.178 52.019 173.178 L 52.019 173.178 L 52.019 173.178 Q 53.119 173.178 53.96 173.656 L 53.96 173.656 L 53.96 173.656 Q 54.801 174.135 55.252 175.03 L 55.252 175.03 L 55.252 175.03 Q 55.703 175.926 55.703 177.129 Z  M 61.691 173.178 L 61.691 173.178 L 61.691 173.178 Q 62.115 173.178 62.396 173.239 L 62.396 173.239 L 62.238 175.194 L 62.238 175.194 Q 61.985 175.126 61.623 175.126 L 61.623 175.126 L 61.623 175.126 Q 60.625 175.126 60.068 175.639 L 60.068 175.639 L 60.068 175.639 Q 59.511 176.151 59.511 177.074 L 59.511 177.074 L 59.511 180.964 L 57.426 180.964 L 57.426 173.321 L 59.005 173.321 L 59.313 174.606 L 59.415 174.606 L 59.415 174.606 Q 59.771 173.964 60.375 173.571 L 60.375 173.571 L 60.375 173.571 Q 60.98 173.178 61.691 173.178 Z  M 65.444 177.129 L 65.444 177.129 L 65.444 177.129 Q 65.444 178.264 65.817 178.845 L 65.817 178.845 L 65.817 178.845 Q 66.189 179.426 67.03 179.426 L 67.03 179.426 L 67.03 179.426 Q 67.864 179.426 68.23 178.848 L 68.23 178.848 L 68.23 178.848 Q 68.596 178.271 68.596 177.129 L 68.596 177.129 L 68.596 177.129 Q 68.596 175.994 68.227 175.427 L 68.227 175.427 L 68.227 175.427 Q 67.857 174.859 67.017 174.859 L 67.017 174.859 L 67.017 174.859 Q 66.183 174.859 65.813 175.423 L 65.813 175.423 L 65.813 175.423 Q 65.444 175.987 65.444 177.129 Z  M 70.729 177.129 L 70.729 177.129 L 70.729 177.129 Q 70.729 178.995 69.744 180.048 L 69.744 180.048 L 69.744 180.048 Q 68.76 181.101 67.003 181.101 L 67.003 181.101 L 67.003 181.101 Q 65.902 181.101 65.062 180.619 L 65.062 180.619 L 65.062 180.619 Q 64.221 180.137 63.77 179.234 L 63.77 179.234 L 63.77 179.234 Q 63.318 178.332 63.318 177.129 L 63.318 177.129 L 63.318 177.129 Q 63.318 175.256 64.296 174.217 L 64.296 174.217 L 64.296 174.217 Q 65.273 173.178 67.044 173.178 L 67.044 173.178 L 67.044 173.178 Q 68.145 173.178 68.985 173.656 L 68.985 173.656 L 68.985 173.656 Q 69.826 174.135 70.277 175.03 L 70.277 175.03 L 70.277 175.03 Q 70.729 175.926 70.729 177.129 Z  M 79.506 175.98 L 79.506 180.964 L 77.421 180.964 L 77.421 176.5 L 77.421 176.5 Q 77.421 175.673 77.127 175.259 L 77.127 175.259 L 77.127 175.259 Q 76.833 174.846 76.19 174.846 L 76.19 174.846 L 76.19 174.846 Q 75.315 174.846 74.926 175.43 L 74.926 175.43 L 74.926 175.43 Q 74.536 176.015 74.536 177.368 L 74.536 177.368 L 74.536 180.964 L 72.451 180.964 L 72.451 173.321 L 74.044 173.321 L 74.324 174.299 L 74.44 174.299 L 74.44 174.299 Q 74.789 173.745 75.401 173.461 L 75.401 173.461 L 75.401 173.461 Q 76.013 173.178 76.792 173.178 L 76.792 173.178 L 76.792 173.178 Q 78.125 173.178 78.815 173.899 L 78.815 173.899 L 78.815 173.899 Q 79.506 174.62 79.506 175.98 L 79.506 175.98 L 79.506 175.98 Z  M 87.962 180.964 L 86.506 180.964 L 86.103 179.925 L 86.048 179.925 L 86.048 179.925 Q 85.521 180.588 84.964 180.844 L 84.964 180.844 L 84.964 180.844 Q 84.407 181.101 83.512 181.101 L 83.512 181.101 L 83.512 181.101 Q 82.411 181.101 81.779 180.472 L 81.779 180.472 L 81.779 180.472 Q 81.146 179.843 81.146 178.681 L 81.146 178.681 L 81.146 178.681 Q 81.146 177.464 81.998 176.886 L 81.998 176.886 L 81.998 176.886 Q 82.849 176.309 84.564 176.247 L 84.564 176.247 L 85.891 176.206 L 85.891 175.871 L 85.891 175.871 Q 85.891 174.709 84.701 174.709 L 84.701 174.709 L 84.701 174.709 Q 83.785 174.709 82.548 175.263 L 82.548 175.263 L 81.857 173.854 L 81.857 173.854 Q 83.177 173.164 84.783 173.164 L 84.783 173.164 L 84.783 173.164 Q 86.321 173.164 87.142 173.834 L 87.142 173.834 L 87.142 173.834 Q 87.962 174.504 87.962 175.871 L 87.962 175.871 L 87.962 180.964 L 87.962 180.964 Z  M 85.891 178.052 L 85.891 177.423 L 85.084 177.45 L 85.084 177.45 Q 84.175 177.478 83.73 177.778 L 83.73 177.778 L 83.73 177.778 Q 83.286 178.079 83.286 178.694 L 83.286 178.694 L 83.286 178.694 Q 83.286 179.576 84.298 179.576 L 84.298 179.576 L 84.298 179.576 Q 85.022 179.576 85.457 179.159 L 85.457 179.159 L 85.457 179.159 Q 85.891 178.742 85.891 178.052 L 85.891 178.052 L 85.891 178.052 Z  M 94.066 180.964 L 91.927 180.964 L 89.015 173.321 L 91.195 173.321 L 92.672 177.676 L 92.672 177.676 Q 92.918 178.503 92.979 179.241 L 92.979 179.241 L 93.021 179.241 L 93.021 179.241 Q 93.055 178.585 93.328 177.676 L 93.328 177.676 L 94.798 173.321 L 96.979 173.321 L 94.066 180.964 L 94.066 180.964 Z  M 97.983 171.346 L 97.983 171.346 L 97.983 171.346 Q 97.983 170.327 99.118 170.327 L 99.118 170.327 L 99.118 170.327 Q 100.253 170.327 100.253 171.346 L 100.253 171.346 L 100.253 171.346 Q 100.253 171.831 99.969 172.101 L 99.969 172.101 L 99.969 172.101 Q 99.686 172.371 99.118 172.371 L 99.118 172.371 L 99.118 172.371 Q 97.983 172.371 97.983 171.346 Z  M 100.157 173.321 L 100.157 180.964 L 98.072 180.964 L 98.072 173.321 L 100.157 173.321 L 100.157 173.321 Z  M 106.61 173.178 L 106.61 173.178 L 106.61 173.178 Q 107.034 173.178 107.314 173.239 L 107.314 173.239 L 107.157 175.194 L 107.157 175.194 Q 106.904 175.126 106.542 175.126 L 106.542 175.126 L 106.542 175.126 Q 105.544 175.126 104.987 175.639 L 104.987 175.639 L 104.987 175.639 Q 104.43 176.151 104.43 177.074 L 104.43 177.074 L 104.43 180.964 L 102.345 180.964 L 102.345 173.321 L 103.924 173.321 L 104.231 174.606 L 104.334 174.606 L 104.334 174.606 Q 104.689 173.964 105.294 173.571 L 105.294 173.571 L 105.294 173.571 Q 105.899 173.178 106.61 173.178 Z  M 115.716 180.964 L 114.116 180.964 L 113.836 179.986 L 113.727 179.986 L 113.727 179.986 Q 113.392 180.52 112.776 180.81 L 112.776 180.81 L 112.776 180.81 Q 112.161 181.101 111.375 181.101 L 111.375 181.101 L 111.375 181.101 Q 110.028 181.101 109.345 180.379 L 109.345 180.379 L 109.345 180.379 Q 108.661 179.658 108.661 178.305 L 108.661 178.305 L 108.661 173.321 L 110.746 173.321 L 110.746 177.785 L 110.746 177.785 Q 110.746 178.612 111.04 179.026 L 111.04 179.026 L 111.04 179.026 Q 111.334 179.439 111.977 179.439 L 111.977 179.439 L 111.977 179.439 Q 112.852 179.439 113.241 178.855 L 113.241 178.855 L 113.241 178.855 Q 113.631 178.271 113.631 176.917 L 113.631 176.917 L 113.631 173.321 L 115.716 173.321 L 115.716 180.964 L 115.716 180.964 Z  M 123.235 178.694 L 123.235 178.694 L 123.235 178.694 Q 123.235 179.87 122.418 180.485 L 122.418 180.485 L 122.418 180.485 Q 121.602 181.101 119.975 181.101 L 119.975 181.101 L 119.975 181.101 Q 119.141 181.101 118.553 180.988 L 118.553 180.988 L 118.553 180.988 Q 117.965 180.875 117.452 180.656 L 117.452 180.656 L 117.452 178.934 L 117.452 178.934 Q 118.033 179.207 118.761 179.392 L 118.761 179.392 L 118.761 179.392 Q 119.489 179.576 120.043 179.576 L 120.043 179.576 L 120.043 179.576 Q 121.178 179.576 121.178 178.92 L 121.178 178.92 L 121.178 178.92 Q 121.178 178.674 121.027 178.52 L 121.027 178.52 L 121.027 178.52 Q 120.877 178.366 120.508 178.171 L 120.508 178.171 L 120.508 178.171 Q 120.139 177.977 119.523 177.717 L 119.523 177.717 L 119.523 177.717 Q 118.642 177.348 118.228 177.033 L 118.228 177.033 L 118.228 177.033 Q 117.814 176.719 117.626 176.312 L 117.626 176.312 L 117.626 176.312 Q 117.438 175.905 117.438 175.311 L 117.438 175.311 L 117.438 175.311 Q 117.438 174.292 118.228 173.735 L 118.228 173.735 L 118.228 173.735 Q 119.018 173.178 120.467 173.178 L 120.467 173.178 L 120.467 173.178 Q 121.848 173.178 123.153 173.779 L 123.153 173.779 L 122.524 175.283 L 122.524 175.283 Q 121.95 175.037 121.451 174.88 L 121.451 174.88 L 121.451 174.88 Q 120.952 174.723 120.433 174.723 L 120.433 174.723 L 120.433 174.723 Q 119.51 174.723 119.51 175.222 L 119.51 175.222 L 119.51 175.222 Q 119.51 175.502 119.807 175.707 L 119.807 175.707 L 119.807 175.707 Q 120.104 175.912 121.109 176.315 L 121.109 176.315 L 121.109 176.315 Q 122.005 176.678 122.422 176.992 L 122.422 176.992 L 122.422 176.992 Q 122.839 177.307 123.037 177.717 L 123.037 177.717 L 123.037 177.717 Q 123.235 178.127 123.235 178.694 Z  M 135.629 175.823 L 135.629 175.823 L 135.629 175.823 Q 135.629 176.808 135.314 177.625 L 135.314 177.625 L 135.314 177.625 Q 135 178.441 134.426 178.906 L 134.426 178.906 L 134.426 178.906 Q 133.852 179.371 133.093 179.371 L 133.093 179.371 L 133.093 179.371 Q 132.587 179.371 132.197 179.128 L 132.197 179.128 L 132.197 179.128 Q 131.808 178.886 131.637 178.489 L 131.637 178.489 L 131.527 178.489 L 131.527 178.489 Q 130.789 179.371 129.647 179.371 L 129.647 179.371 L 129.647 179.371 Q 128.438 179.371 127.74 178.643 L 127.74 178.643 L 127.74 178.643 Q 127.043 177.915 127.043 176.65 L 127.043 176.65 L 127.043 176.65 Q 127.043 175.208 127.959 174.326 L 127.959 174.326 L 127.959 174.326 Q 128.875 173.444 130.352 173.444 L 130.352 173.444 L 130.352 173.444 Q 130.939 173.444 131.647 173.557 L 131.647 173.557 L 131.647 173.557 Q 132.354 173.67 132.813 173.827 L 132.813 173.827 L 132.655 177.17 L 132.655 177.17 Q 132.655 178.12 133.175 178.12 L 133.175 178.12 L 133.175 178.12 Q 133.612 178.12 133.872 177.481 L 133.872 177.481 L 133.872 177.481 Q 134.132 176.842 134.132 175.81 L 134.132 175.81 L 134.132 175.81 Q 134.132 174.709 133.674 173.865 L 133.674 173.865 L 133.674 173.865 Q 133.216 173.021 132.385 172.576 L 132.385 172.576 L 132.385 172.576 Q 131.555 172.132 130.488 172.132 L 130.488 172.132 L 130.488 172.132 Q 129.107 172.132 128.089 172.699 L 128.089 172.699 L 128.089 172.699 Q 127.07 173.267 126.527 174.336 L 126.527 174.336 L 126.527 174.336 Q 125.983 175.406 125.983 176.808 L 125.983 176.808 L 125.983 176.808 Q 125.983 178.694 126.992 179.703 L 126.992 179.703 L 126.992 179.703 Q 128 180.711 129.914 180.711 L 129.914 180.711 L 129.914 180.711 Q 130.639 180.711 131.507 180.55 L 131.507 180.55 L 131.507 180.55 Q 132.375 180.39 133.216 180.082 L 133.216 180.082 L 133.216 181.395 L 133.216 181.395 Q 131.753 182.017 129.969 182.017 L 129.969 182.017 L 129.969 182.017 Q 127.371 182.017 125.918 180.649 L 125.918 180.649 L 125.918 180.649 Q 124.466 179.282 124.466 176.849 L 124.466 176.849 L 124.466 176.849 Q 124.466 175.16 125.208 173.783 L 125.208 173.783 L 125.208 173.783 Q 125.949 172.405 127.32 171.623 L 127.32 171.623 L 127.32 171.623 Q 128.69 170.84 130.475 170.84 L 130.475 170.84 L 130.475 170.84 Q 131.979 170.84 133.161 171.455 L 133.161 171.455 L 133.161 171.455 Q 134.344 172.07 134.986 173.205 L 134.986 173.205 L 134.986 173.205 Q 135.629 174.34 135.629 175.823 Z  M 128.629 176.678 L 128.629 176.678 L 128.629 176.678 Q 128.629 178.12 129.805 178.12 L 129.805 178.12 L 129.805 178.12 Q 130.42 178.12 130.741 177.686 L 130.741 177.686 L 130.741 177.686 Q 131.063 177.252 131.131 176.274 L 131.131 176.274 L 131.22 174.764 L 131.22 174.764 Q 130.871 174.688 130.434 174.688 L 130.434 174.688 L 130.434 174.688 Q 129.579 174.688 129.104 175.222 L 129.104 175.222 L 129.104 175.222 Q 128.629 175.755 128.629 176.678 Z  M 144.434 180.964 L 142.834 180.964 L 142.554 179.986 L 142.444 179.986 L 142.444 179.986 Q 142.109 180.52 141.494 180.81 L 141.494 180.81 L 141.494 180.81 Q 140.879 181.101 140.093 181.101 L 140.093 181.101 L 140.093 181.101 Q 138.746 181.101 138.063 180.379 L 138.063 180.379 L 138.063 180.379 Q 137.379 179.658 137.379 178.305 L 137.379 178.305 L 137.379 173.321 L 139.464 173.321 L 139.464 177.785 L 139.464 177.785 Q 139.464 178.612 139.758 179.026 L 139.758 179.026 L 139.758 179.026 Q 140.052 179.439 140.694 179.439 L 140.694 179.439 L 140.694 179.439 Q 141.569 179.439 141.959 178.855 L 141.959 178.855 L 141.959 178.855 Q 142.349 178.271 142.349 176.917 L 142.349 176.917 L 142.349 173.321 L 144.434 173.321 L 144.434 180.964 L 144.434 180.964 Z  M 150.579 180.964 L 148.439 180.964 L 145.527 173.321 L 147.708 173.321 L 149.185 177.676 L 149.185 177.676 Q 149.431 178.503 149.492 179.241 L 149.492 179.241 L 149.533 179.241 L 149.533 179.241 Q 149.567 178.585 149.841 177.676 L 149.841 177.676 L 151.311 173.321 L 153.491 173.321 L 150.579 180.964 L 150.579 180.964 Z  M 159.903 179.371 L 159.903 180.964 L 153.867 180.964 L 153.867 179.733 L 157.408 174.914 L 154.079 174.914 L 154.079 173.321 L 159.78 173.321 L 159.78 174.675 L 156.335 179.371 L 159.903 179.371 L 159.903 179.371 Z  M 166.746 178.694 L 166.746 178.694 L 166.746 178.694 Q 166.746 179.87 165.929 180.485 L 165.929 180.485 L 165.929 180.485 Q 165.112 181.101 163.485 181.101 L 163.485 181.101 L 163.485 181.101 Q 162.651 181.101 162.063 180.988 L 162.063 180.988 L 162.063 180.988 Q 161.476 180.875 160.963 180.656 L 160.963 180.656 L 160.963 178.934 L 160.963 178.934 Q 161.544 179.207 162.272 179.392 L 162.272 179.392 L 162.272 179.392 Q 163 179.576 163.554 179.576 L 163.554 179.576 L 163.554 179.576 Q 164.688 179.576 164.688 178.92 L 164.688 178.92 L 164.688 178.92 Q 164.688 178.674 164.538 178.52 L 164.538 178.52 L 164.538 178.52 Q 164.388 178.366 164.019 178.171 L 164.019 178.171 L 164.019 178.171 Q 163.649 177.977 163.034 177.717 L 163.034 177.717 L 163.034 177.717 Q 162.152 177.348 161.739 177.033 L 161.739 177.033 L 161.739 177.033 Q 161.325 176.719 161.137 176.312 L 161.137 176.312 L 161.137 176.312 Q 160.949 175.905 160.949 175.311 L 160.949 175.311 L 160.949 175.311 Q 160.949 174.292 161.739 173.735 L 161.739 173.735 L 161.739 173.735 Q 162.528 173.178 163.978 173.178 L 163.978 173.178 L 163.978 173.178 Q 165.358 173.178 166.664 173.779 L 166.664 173.779 L 166.035 175.283 L 166.035 175.283 Q 165.461 175.037 164.962 174.88 L 164.962 174.88 L 164.962 174.88 Q 164.463 174.723 163.943 174.723 L 163.943 174.723 L 163.943 174.723 Q 163.021 174.723 163.021 175.222 L 163.021 175.222 L 163.021 175.222 Q 163.021 175.502 163.318 175.707 L 163.318 175.707 L 163.318 175.707 Q 163.615 175.912 164.62 176.315 L 164.62 176.315 L 164.62 176.315 Q 165.516 176.678 165.933 176.992 L 165.933 176.992 L 165.933 176.992 Q 166.35 177.307 166.548 177.717 L 166.548 177.717 L 166.548 177.717 Q 166.746 178.127 166.746 178.694 Z  M 172.639 173.178 L 172.639 173.178 L 172.639 173.178 Q 173.063 173.178 173.343 173.239 L 173.343 173.239 L 173.186 175.194 L 173.186 175.194 Q 172.933 175.126 172.57 175.126 L 172.57 175.126 L 172.57 175.126 Q 171.572 175.126 171.015 175.639 L 171.015 175.639 L 171.015 175.639 Q 170.458 176.151 170.458 177.074 L 170.458 177.074 L 170.458 180.964 L 168.373 180.964 L 168.373 173.321 L 169.952 173.321 L 170.26 174.606 L 170.362 174.606 L 170.362 174.606 Q 170.718 173.964 171.323 173.571 L 171.323 173.571 L 171.323 173.571 Q 171.928 173.178 172.639 173.178 Z  M 174.437 179.986 L 174.437 179.986 L 174.437 179.986 Q 174.437 179.412 174.744 179.118 L 174.744 179.118 L 174.744 179.118 Q 175.052 178.824 175.64 178.824 L 175.64 178.824 L 175.64 178.824 Q 176.207 178.824 176.518 179.125 L 176.518 179.125 L 176.518 179.125 Q 176.829 179.426 176.829 179.986 L 176.829 179.986 L 176.829 179.986 Q 176.829 180.526 176.515 180.837 L 176.515 180.837 L 176.515 180.837 Q 176.2 181.148 175.64 181.148 L 175.64 181.148 L 175.64 181.148 Q 175.065 181.148 174.751 180.844 L 174.751 180.844 L 174.751 180.844 Q 174.437 180.54 174.437 179.986 Z  M 184.055 178.694 L 184.055 178.694 L 184.055 178.694 Q 184.055 179.87 183.238 180.485 L 183.238 180.485 L 183.238 180.485 Q 182.421 181.101 180.794 181.101 L 180.794 181.101 L 180.794 181.101 Q 179.96 181.101 179.372 180.988 L 179.372 180.988 L 179.372 180.988 Q 178.784 180.875 178.271 180.656 L 178.271 180.656 L 178.271 178.934 L 178.271 178.934 Q 178.853 179.207 179.581 179.392 L 179.581 179.392 L 179.581 179.392 Q 180.309 179.576 180.862 179.576 L 180.862 179.576 L 180.862 179.576 Q 181.997 179.576 181.997 178.92 L 181.997 178.92 L 181.997 178.92 Q 181.997 178.674 181.847 178.52 L 181.847 178.52 L 181.847 178.52 Q 181.696 178.366 181.327 178.171 L 181.327 178.171 L 181.327 178.171 Q 180.958 177.977 180.343 177.717 L 180.343 177.717 L 180.343 177.717 Q 179.461 177.348 179.047 177.033 L 179.047 177.033 L 179.047 177.033 Q 178.634 176.719 178.446 176.312 L 178.446 176.312 L 178.446 176.312 Q 178.258 175.905 178.258 175.311 L 178.258 175.311 L 178.258 175.311 Q 178.258 174.292 179.047 173.735 L 179.047 173.735 L 179.047 173.735 Q 179.837 173.178 181.286 173.178 L 181.286 173.178 L 181.286 173.178 Q 182.667 173.178 183.973 173.779 L 183.973 173.779 L 183.344 175.283 L 183.344 175.283 Q 182.77 175.037 182.271 174.88 L 182.271 174.88 L 182.271 174.88 Q 181.771 174.723 181.252 174.723 L 181.252 174.723 L 181.252 174.723 Q 180.329 174.723 180.329 175.222 L 180.329 175.222 L 180.329 175.222 Q 180.329 175.502 180.626 175.707 L 180.626 175.707 L 180.626 175.707 Q 180.924 175.912 181.929 176.315 L 181.929 176.315 L 181.929 176.315 Q 182.824 176.678 183.241 176.992 L 183.241 176.992 L 183.241 176.992 Q 183.658 177.307 183.856 177.717 L 183.856 177.717 L 183.856 177.717 Q 184.055 178.127 184.055 178.694 Z  M 187.657 176.808 L 187.685 176.808 L 188.594 175.646 L 190.733 173.321 L 193.085 173.321 L 190.05 176.637 L 193.27 180.964 L 190.863 180.964 L 188.662 177.867 L 187.767 178.585 L 187.767 180.964 L 185.682 180.964 L 185.682 170.327 L 187.767 170.327 L 187.767 175.071 L 187.657 176.808 L 187.657 176.808 Z " fill-rule="evenodd" fill="rgb(0,0,0)"/></g></svg>