<?xml version="1.0" standalone="no"?><!-- Generator: Gravit.io --><svg xmlns="http://www.w3.org/2000/svg" xmlns:xlink="http://www.w3.org/1999/xlink" style="isolation:isolate" viewBox="0 0 2200 2600" width="2200" height="2600"><defs><clipPath id="_clipPath_VXCHjTYifNf5bCrZvvUNpxfivPxa27i6"><rect width="2200" height="2600"/></clipPath></defs><g clip-path="url(#_clipPath_VXCHjTYifNf5bCrZvvUNpxfivPxa27i6)"><path d=" M 1080.43 27.748 C 1073.23 29.348 1061.03 33.548 1054.93 36.648 C 1043.43 42.448 1029.23 54.548 1020.73 65.848 C 999.13 94.548 995.53 135.448 1011.63 167.748 C 1018.33 181.148 1031.53 196.448 1043.03 204.348 L 1048.13 207.848 L 1048.83 240.348 C 1050.33 315.948 1057.33 792.648 1059.03 944.048 L 1059.73 1001.248 L 1065.83 1001.748 C 1069.23 1002.048 1077.53 1002.848 1084.43 1003.448 C 1096.53 1004.448 1129.83 1008.648 1136.03 1009.948 L 1139.13 1010.548 L 1139.83 954.648 C 1140.63 881.748 1145.03 570.048 1146.93 443.348 C 1149.63 261.548 1150.63 207.848 1151.53 207.548 C 1153.63 206.748 1167.43 195.148 1171.43 190.748 C 1181.53 179.848 1190.73 163.048 1194.53 148.848 C 1197.53 137.448 1198.13 118.448 1196.03 107.048 C 1190.73 79.148 1174.63 55.548 1150.73 40.448 C 1144.23 36.448 1132.03 31.148 1123.43 28.848 C 1114.63 26.548 1089.43 25.848 1080.43 27.748 Z " fill="rgb(0,0,0)"/><path d=" M 749.93 192.348 C 716.03 199.448 671.73 218.648 582.43 264.948 C 525.93 294.148 480.03 316.648 444.93 332.048 C 304.63 393.848 198.43 407.248 106.93 374.848 C 84.43 366.848 68.83 363.248 53.93 362.648 C 33.93 361.848 27.63 364.448 26.73 373.948 C 24.73 394.148 55.03 432.448 92.73 457.448 C 126.33 479.648 159.93 491.248 196.73 493.148 C 211.73 493.948 210.33 492.648 208.33 504.548 C 207.73 508.148 207.43 512.348 207.83 513.748 C 209.73 521.248 225.63 529.048 245.93 532.448 C 257.83 534.448 296.73 534.248 311.93 532.048 C 326.23 530.048 342.13 526.548 356.23 522.248 C 361.93 520.548 366.73 519.248 366.93 519.448 C 367.13 519.648 367.73 524.548 368.43 530.348 C 370.53 550.748 375.03 562.048 384.33 571.348 C 395.03 581.948 409.13 586.548 430.93 586.548 C 449.33 586.448 463.93 584.048 488.73 576.648 C 495.23 574.748 501.03 573.348 501.53 573.548 C 502.03 573.748 504.33 578.148 506.73 583.348 C 520.33 613.448 538.03 627.848 565.93 631.348 C 581.13 633.248 601.53 630.548 626.03 623.348 C 645.43 617.648 655.83 614.648 658.63 613.948 C 661.23 613.348 661.63 613.748 665.33 621.048 C 667.43 625.348 671.23 631.548 673.73 634.848 C 697.13 665.848 745.33 663.148 807.53 627.248 C 812.23 624.548 817.73 622.048 819.73 621.648 C 823.93 621.048 824.63 621.448 838.03 634.248 C 853.53 649.148 862.03 655.848 870.73 660.248 C 888.73 669.348 910.53 669.648 948.43 661.248 C 967.83 656.948 985.73 651.648 1025.23 638.748 L 1030.43 637.048 L 1030.43 618.948 C 1030.33 587.448 1027.63 423.248 1027.13 422.748 C 1026.93 422.448 1022.73 422.948 1017.93 423.848 C 1006.73 425.748 995.83 425.748 985.43 423.748 C 958.03 418.648 941.93 405.248 926.93 375.248 C 924.43 370.348 917.03 353.848 910.53 338.648 C 891.93 295.248 883.83 279.348 870.33 259.148 C 850.43 229.648 824.93 207.748 795.43 194.748 C 787.13 191.148 786.63 191.048 772.93 190.748 C 762.13 190.448 756.93 190.848 749.93 192.348 Z " fill="rgb(0,0,0)"/><path d=" M 1414.93 190.948 C 1409.83 192.248 1403.13 195.148 1394.43 199.648 C 1352.43 221.548 1323.03 258.748 1294.93 325.348 C 1282.93 353.748 1277.03 367.148 1272.73 375.748 C 1257.73 405.548 1241.73 418.648 1213.83 423.948 C 1204.13 425.748 1188.83 425.448 1178.13 423.248 C 1175.03 422.648 1172.13 422.248 1171.93 422.548 C 1171.03 423.448 1168.23 635.548 1169.03 636.348 C 1170.23 637.448 1200.23 647.448 1217.43 652.348 C 1274.53 668.948 1306.73 671.348 1327.93 660.948 C 1337.13 656.448 1344.83 650.348 1361.93 634.348 C 1375.53 621.548 1376.03 621.248 1379.73 621.648 C 1381.73 621.948 1387.83 624.648 1393.23 627.648 C 1416.73 640.948 1436.03 649.048 1454.93 653.448 C 1469.23 656.748 1488.83 656.848 1499.33 653.548 C 1513.83 648.948 1525.33 638.648 1533.73 622.548 C 1537.43 615.448 1539.03 613.348 1540.23 613.748 C 1541.23 614.048 1544.63 614.948 1547.93 615.748 C 1551.23 616.648 1560.73 619.348 1568.93 621.848 C 1605.33 632.948 1629.83 634.748 1649.73 627.848 C 1668.93 621.248 1683.93 605.648 1693.53 582.448 C 1695.23 578.248 1697.03 574.448 1697.43 573.948 C 1697.93 573.448 1704.43 574.848 1712.63 577.148 C 1731.43 582.548 1745.43 585.348 1758.93 586.248 C 1785.93 588.048 1803.63 583.348 1815.53 571.248 C 1825.03 561.648 1829.43 550.348 1831.43 530.448 C 1831.93 524.648 1832.63 519.848 1832.83 519.548 C 1833.13 519.348 1837.93 520.548 1843.63 522.248 C 1857.63 526.448 1873.53 530.048 1887.93 532.048 C 1903.03 534.248 1940.83 534.448 1953.43 532.548 C 1964.53 530.748 1978.73 526.048 1984.53 522.148 C 1992.53 516.748 1993.73 512.648 1991.03 500.848 C 1990.23 497.548 1989.73 494.648 1989.93 494.248 C 1990.23 493.948 1996.33 493.348 2003.63 493.048 C 2035.63 491.548 2068.23 481.248 2098.13 463.248 C 2138.03 439.248 2170.83 401.548 2173.13 377.048 C 2173.63 371.148 2173.53 370.648 2170.73 367.648 C 2166.43 363.048 2161.23 362.048 2145.93 362.648 C 2130.93 363.348 2118.93 366.048 2092.73 374.848 C 2050.43 389.048 2013.43 394.048 1970.93 391.448 C 1896.73 386.748 1824.43 364.948 1717.93 315.348 C 1707.03 310.248 1634.23 273.748 1611.43 261.848 C 1550.63 230.248 1506.43 209.748 1478.43 200.148 C 1458.73 193.448 1446.93 191.048 1431.43 190.748 C 1423.43 190.548 1416.03 190.648 1414.93 190.948 Z " fill="rgb(0,0,0)"/><path d=" M 826.43 776.448 C 820.63 776.948 804.93 778.648 791.43 780.248 C 777.93 781.948 759.53 783.748 750.43 784.348 C 691.83 788.148 645.53 798.348 611.93 814.848 C 559.93 840.348 546.33 877.848 572.03 925.048 C 583.93 946.948 610.83 975.948 636.93 995.248 C 640.83 998.048 644.43 1000.748 644.93 1001.148 C 649.13 1004.448 663.73 1014.248 672.43 1019.548 C 738.53 1060.248 825.33 1090.448 912.93 1103.248 C 933.73 1106.248 940.23 1106.948 982.93 1110.848 C 1041.13 1116.048 1054.93 1117.148 1088.93 1119.348 C 1139.43 1122.648 1145.33 1123.448 1172.13 1130.348 C 1260.63 1153.248 1318.33 1202.148 1318.43 1254.648 C 1318.43 1278.148 1308.93 1298.048 1287.53 1319.448 C 1269.13 1337.748 1243.33 1354.148 1210.93 1368.148 C 1202.73 1371.648 1175.93 1382.948 1165.93 1387.048 L 1158.93 1389.948 L 1158.63 1399.948 L 1158.33 1410.048 L 1161.63 1411.348 C 1177.73 1417.848 1207.43 1433.048 1221.53 1441.948 C 1224.13 1443.648 1224.43 1443.448 1242.83 1434.548 C 1297.53 1407.948 1338.33 1380.448 1369.53 1349.348 C 1376.43 1342.448 1383.33 1335.248 1385.03 1333.348 C 1406.63 1307.648 1420.03 1282.248 1426.03 1255.348 C 1427.33 1249.948 1427.73 1243.148 1427.73 1231.348 C 1427.73 1216.048 1427.53 1213.948 1424.63 1203.048 C 1418.13 1178.148 1403.73 1154.548 1382.43 1133.248 C 1341.83 1093.048 1263.03 1059.348 1162.73 1039.348 C 1121.33 1031.148 1084.53 1026.848 1042.43 1025.348 C 941.93 1021.748 921.13 1020.148 875.53 1012.748 C 816.13 1003.148 770.23 990.648 725.23 971.948 C 672.93 950.148 640.53 926.248 633.13 903.948 C 632.13 900.948 631.43 895.748 631.43 890.748 C 631.43 869.348 641.13 857.448 663.43 851.748 C 680.53 847.348 746.03 848.948 776.83 854.348 C 795.93 857.748 803.23 860.548 835.93 876.948 C 871.73 894.848 873.73 895.448 895.63 895.448 C 925.93 895.448 955.33 888.248 976.43 875.648 C 984.63 870.748 986.43 868.348 986.43 861.848 C 986.43 835.648 942.23 786.548 911.83 778.948 C 908.53 778.048 900.73 776.948 894.43 776.348 C 881.03 775.148 841.73 775.248 826.43 776.448 Z " fill="rgb(0,0,0)"/><path d=" M 1300.93 776.848 C 1288.73 778.148 1284.13 779.448 1276.33 783.348 C 1257.43 793.048 1233.83 816.048 1222.53 835.848 C 1216.43 846.448 1213.43 855.248 1213.43 862.348 L 1213.43 868.348 L 1218.73 872.448 C 1234.83 885.348 1271.83 895.448 1302.63 895.448 C 1325.93 895.548 1329.43 894.448 1360.93 878.348 C 1394.33 861.248 1404.13 857.448 1424.83 853.848 C 1447.33 849.948 1510.73 847.748 1528.43 850.348 C 1556.93 854.348 1569.33 867.648 1568.23 893.148 C 1567.83 902.048 1567.53 903.448 1564.03 910.048 C 1552.43 931.948 1517.73 955.048 1465.43 975.648 C 1395.63 1003.048 1316.53 1018.248 1219.93 1022.948 C 1208.13 1023.448 1205.73 1023.848 1208.43 1024.548 C 1222.73 1028.148 1250.53 1036.448 1264.83 1041.248 C 1299.73 1053.148 1326.63 1065.148 1352.73 1080.548 L 1364.53 1087.448 L 1377.23 1083.948 C 1464.53 1059.548 1543.03 1017.848 1592.63 969.448 C 1635.93 927.348 1650.43 885.448 1633.13 852.948 C 1629.13 845.548 1617.33 832.848 1608.63 826.748 C 1576.53 804.148 1524.53 789.948 1455.93 784.848 C 1444.43 784.048 1430.93 782.848 1425.93 782.248 C 1421.03 781.748 1407.23 780.048 1395.43 778.648 C 1368.83 775.548 1320.83 774.548 1300.93 776.848 Z " fill="rgb(0,0,0)"/><path d=" M 836.43 1116.448 C 818.23 1131.448 803.93 1146.648 793.53 1162.248 C 786.43 1172.748 778.63 1190.148 775.23 1203.048 C 772.33 1213.948 772.13 1216.048 772.13 1231.348 C 772.13 1248.948 773.13 1255.648 778.13 1270.848 C 790.53 1308.948 821.53 1347.048 868.43 1382.048 C 914.73 1416.548 975.63 1446.748 1055.43 1474.748 C 1122.53 1498.248 1163.43 1518.948 1194.03 1544.648 C 1237.93 1581.648 1248.53 1624.248 1225.33 1670.548 C 1214.53 1692.148 1189.73 1720.848 1163.03 1742.848 L 1153.43 1750.748 L 1153.43 1772.248 L 1153.43 1793.848 L 1166.23 1801.848 C 1173.23 1806.248 1179.43 1809.948 1179.93 1810.148 C 1180.53 1810.248 1185.93 1806.648 1192.03 1802.148 C 1236.63 1768.548 1270.43 1729.248 1289.53 1688.848 C 1329.73 1603.648 1301.13 1523.748 1208.83 1462.948 C 1188.93 1449.848 1163.33 1437.548 1128.93 1424.548 C 1084.83 1407.848 1040.23 1389.948 999.73 1372.748 C 967.83 1359.148 943.03 1345.248 926.13 1331.248 C 915.13 1322.248 901.93 1308.448 896.33 1300.248 C 863.33 1251.648 877.63 1197.948 933.53 1160.548 C 946.83 1151.648 980.03 1136.348 986.13 1136.348 C 987.03 1136.348 987.53 1136.148 987.33 1135.948 C 987.13 1135.748 978.43 1134.748 967.93 1133.948 C 926.23 1130.348 894.53 1125.748 860.13 1118.348 C 850.13 1116.148 841.23 1114.348 840.43 1114.348 C 839.63 1114.448 837.83 1115.348 836.43 1116.448 Z " fill="rgb(0,0,0)"/><path d=" M 1061.93 1157.448 C 1062.23 1165.948 1062.93 1217.848 1063.53 1272.848 C 1064.13 1327.848 1064.93 1373.148 1065.33 1373.448 C 1065.63 1373.848 1079.03 1379.148 1094.93 1385.248 C 1110.93 1391.448 1126.03 1397.348 1128.63 1398.348 C 1131.13 1399.348 1133.53 1399.948 1133.73 1399.648 C 1134.03 1399.448 1134.33 1382.048 1134.43 1361.148 C 1134.43 1340.148 1134.63 1322.748 1134.83 1322.448 C 1135.03 1322.148 1135.43 1290.348 1135.83 1251.848 C 1136.13 1213.348 1136.73 1174.148 1137.13 1164.648 L 1137.73 1147.548 L 1133.33 1146.948 C 1127.93 1146.248 1091.63 1143.648 1074.13 1142.748 L 1061.33 1142.048 L 1061.93 1157.448 Z " fill="rgb(0,0,0)"/><path d=" M 973.93 1474.648 C 940.43 1501.548 921.63 1523.048 908.13 1549.848 C 874.63 1616.848 896.23 1696.248 967.23 1767.048 C 985.33 1785.048 1006.83 1802.648 1024.53 1813.848 C 1028.63 1816.448 1034.23 1820.048 1036.93 1821.848 C 1039.73 1823.648 1048.23 1828.848 1055.93 1833.348 C 1095.63 1856.948 1123.33 1877.448 1147.73 1901.248 C 1177.33 1930.148 1191.43 1955.048 1191.43 1978.348 C 1191.43 1997.348 1182.13 2014.548 1160.03 2036.448 L 1149.63 2046.748 L 1149.53 2070.848 L 1149.33 2094.948 L 1155.83 2101.148 C 1159.33 2104.548 1162.63 2107.348 1163.03 2107.348 C 1164.43 2107.348 1178.33 2095.448 1189.83 2084.348 C 1223.53 2051.748 1243.43 2018.948 1249.93 1985.348 C 1252.03 1974.048 1252.03 1953.348 1249.93 1942.848 C 1242.43 1905.648 1220.33 1873.448 1179.93 1841.148 C 1169.73 1833.048 1153.23 1822.048 1134.43 1810.848 C 1125.33 1805.448 1108.93 1795.048 1097.93 1787.748 C 1060.63 1763.148 1038.73 1745.648 1014.93 1721.848 C 989.33 1696.348 975.23 1674.948 967.73 1650.548 C 965.33 1642.748 965.03 1640.248 965.03 1625.848 C 964.93 1607.348 966.03 1602.248 972.83 1587.848 C 983.43 1565.648 1002.73 1545.748 1031.73 1526.848 L 1042.53 1519.848 L 1042.23 1507.948 L 1041.93 1495.948 L 1018.93 1487.248 C 1006.33 1482.548 992.13 1476.948 987.43 1474.948 C 982.83 1472.948 978.73 1471.348 978.43 1471.448 C 978.13 1471.448 976.13 1472.848 973.93 1474.648 Z " fill="rgb(0,0,0)"/><path d=" M 1066.43 1512.148 C 1066.43 1516.348 1067.13 1567.048 1067.93 1624.848 C 1068.73 1682.548 1069.43 1731.648 1069.43 1733.948 C 1069.43 1737.648 1069.83 1738.348 1074.23 1741.348 C 1076.83 1743.248 1079.43 1745.248 1080.13 1745.948 C 1081.73 1747.548 1109.13 1766.348 1120.23 1773.448 L 1129.43 1779.348 L 1129.43 1762.048 C 1129.43 1740.748 1131.13 1603.848 1131.93 1563.248 L 1132.43 1533.548 L 1119.73 1527.348 C 1107.53 1521.348 1087.73 1512.548 1080.43 1509.848 C 1078.53 1509.148 1074.53 1507.648 1071.73 1506.448 L 1066.43 1504.348 L 1066.43 1512.148 Z " fill="rgb(0,0,0)"/><path d=" M 1010.63 1848.748 C 994.13 1862.648 976.63 1882.648 967.23 1898.348 C 954.03 1920.548 948.23 1940.948 948.23 1964.348 C 948.33 2002.848 966.13 2039.348 1003.43 2077.748 C 1016.63 2091.348 1025.73 2099.248 1049.83 2118.148 C 1102.03 2159.048 1107.63 2163.648 1115.13 2172.448 C 1137.63 2198.948 1149.63 2234.548 1149.33 2273.748 C 1149.33 2278.748 1148.83 2286.248 1148.33 2290.348 C 1147.53 2296.648 1145.33 2397.248 1146.03 2398.148 C 1146.63 2399.048 1159.53 2376.748 1165.93 2363.848 C 1186.03 2322.648 1195.53 2280.348 1194.13 2237.848 C 1193.03 2205.848 1187.23 2185.048 1172.23 2159.648 C 1159.23 2137.548 1143.93 2121.348 1115.73 2099.648 C 1106.43 2092.648 1095.13 2083.648 1090.43 2079.848 C 1085.73 2075.948 1077.43 2069.248 1071.93 2064.948 C 1051.73 2048.948 1033.43 2031.348 1024.33 2019.348 C 1018.33 2011.348 1011.13 1997.548 1009.53 1990.848 C 1008.83 1988.148 1008.33 1982.348 1008.33 1977.848 C 1008.43 1958.648 1018.43 1938.348 1039.73 1914.248 L 1047.43 1905.448 L 1047.43 1894.648 C 1047.43 1888.748 1047.13 1877.548 1046.73 1869.848 L 1046.13 1855.848 L 1033.83 1848.548 C 1027.03 1844.648 1021.03 1841.348 1020.53 1841.348 C 1019.93 1841.348 1015.53 1844.648 1010.63 1848.748 Z " fill="rgb(0,0,0)"/><path d=" M 1071.53 1902.048 C 1071.53 1918.448 1071.93 1954.848 1072.33 1982.948 L 1073.03 2034.048 L 1076.83 2037.448 C 1083.63 2043.348 1123.83 2075.348 1124.53 2075.348 C 1125.13 2075.348 1125.63 2051.748 1127.03 1956.848 L 1127.63 1914.848 L 1118.73 1907.348 C 1107.63 1897.848 1097.23 1889.548 1091.43 1885.448 C 1079.23 1876.848 1072.43 1872.348 1071.93 1872.348 C 1071.63 1872.348 1071.43 1885.748 1071.53 1902.048 Z " fill="rgb(0,0,0)"/><path d=" M 1033.53 2150.248 C 1024.73 2163.348 1015.93 2181.148 1011.83 2194.348 C 1008.63 2204.448 1006.33 2221.348 1005.73 2237.848 C 1003.43 2305.648 1029.73 2374.948 1079.53 2431.848 C 1089.53 2443.248 1107.33 2460.948 1118.53 2470.548 C 1127.43 2478.148 1142.43 2489.648 1142.43 2488.948 C 1142.43 2488.648 1137.93 2482.248 1132.33 2474.848 C 1089.03 2416.348 1062.63 2360.348 1053.33 2307.148 C 1051.33 2295.448 1051.23 2291.248 1050.93 2222.348 L 1050.63 2149.848 L 1046.73 2146.548 C 1039.73 2140.448 1040.13 2140.348 1033.53 2150.248 Z " fill="rgb(0,0,0)"/><path d=" M 1075.13 2214.548 C 1075.83 2283.148 1076.73 2303.448 1079.93 2316.848 C 1086.43 2344.248 1101.13 2380.048 1117.23 2407.748 L 1121.23 2414.548 L 1121.83 2370.248 C 1122.23 2345.848 1122.63 2306.948 1122.73 2283.848 L 1122.93 2241.848 L 1119.63 2231.348 C 1113.33 2211.548 1102.73 2193.448 1090.83 2182.248 C 1085.33 2177.048 1075.93 2169.348 1075.13 2169.348 C 1074.93 2169.348 1074.83 2189.748 1075.13 2214.548 Z " fill="rgb(0,0,0)"/><path d=" M 1078.73 2489.848 C 1079.53 2523.348 1083.33 2547.648 1089.93 2562.148 C 1092.83 2568.448 1096.93 2573.348 1099.43 2573.348 C 1101.73 2573.348 1105.83 2568.648 1108.73 2562.848 C 1113.53 2553.248 1117.73 2533.448 1119.23 2512.948 L 1120.03 2503.148 L 1110.13 2495.048 C 1101.03 2487.748 1094.83 2482.348 1082.53 2470.948 L 1078.23 2466.848 L 1078.73 2489.848 Z " fill="rgb(0,0,0)"/></g></svg>